<svg t="1620979559274" class="icon" viewBox="0 0 1101 1024" version="1.1" xmlns="http://www.w3.org/2000/svg" p-id="5793" width="200" height="200"><path
        d="M0 145.46944zM909.44 614.17472c-139.53536 85.17632-321.6896 41.10848-406.86592-98.432-85.16608-139.53024-41.09312-321.68448 98.44224-406.87616 139.53536-85.15584 321.6896-41.08288 406.86592 98.44736 85.15072 139.54048 41.088 321.67936-98.44224 406.8608z m36.41344-367.69792c-61.80352-101.22752-193.9456-133.1968-295.17312-71.41376-101.2224 61.79328-133.20704 193.94048-71.41888 295.17312 61.7984 101.23264 193.95072 133.19168 295.17312 71.41376 101.2224-61.79328 133.20704-193.94048 71.41888-295.17312zM394.15296 211.99872c0 26.10688-25.97376 47.26784-58.01472 47.26784H153.55392c-32.04096 0-58.01472-21.16096-58.01472-47.26784 0-26.10688 25.97376-47.26784 58.01472-47.26784h182.58432c32.04096-0.00512 58.01472 21.16096 58.01472 47.26784zM455.552 547.31264c0 26.79296-25.97376 48.51712-58.01472 48.51712H153.55392c-32.04096 0-58.01472-21.71904-58.01472-48.51712 0-26.79296 25.97376-48.512 58.01472-48.512h243.98336c32.03584 0 58.01472 21.71904 58.01472 48.512zM844.40576 887.46496c0 27.48416-25.96864 49.76128-58.0096 49.76128H153.55392c-32.04096 0-58.01472-22.27712-58.01472-49.76128 0-27.47904 25.97376-49.75616 58.01472-49.75616h632.84224c32.04096-0.00512 58.0096 22.27712 58.0096 49.75616z" fill="#606266" p-id="5794"></path><path d="M749.80352 378.5216h-55.67488c-10.61376-1.03936-16.45568-5.28384-17.48992-12.71296 0-9.53344 5.81632-14.3104 17.48992-14.3104h38.16448l-65.19808-100.18304c0-1.03424-0.54272-2.11968-1.58208-3.18464a59.52512 59.52512 0 0 1-4.77696-12.71808c1.03424-8.48384 5.8112-13.24032 14.30528-14.30528 8.46848 0 14.83264 3.72224 19.08736 11.14112l73.15968 109.73696 73.1648-109.73696c4.21888-7.41376 10.58816-11.136 19.08736-11.136 8.48384 1.06496 13.24032 5.82144 14.30528 14.30528 0 2.13504-1.58208 6.36928-4.7616 12.71808-1.05984 1.06496-1.59744 2.12992-1.59744 3.18464l-65.19808 100.18304h38.16448c11.648 0 17.49504 4.77696 17.49504 14.3104-1.07008 7.43424-6.92224 11.67872-17.49504 12.71296h-55.66976v28.63616h55.66976c11.648 0 17.49504 4.7616 17.49504 14.30528-1.07008 7.42912-6.92224 11.67872-17.49504 12.71296h-55.66976v63.616c0 10.61376-5.84192 15.90272-17.49504 15.90272-11.67872 0-17.4848-5.28896-17.4848-15.90272V434.176h-55.67488c-10.61376-1.03424-16.45568-5.28384-17.48992-12.71296 0-9.5488 5.81632-14.3104 17.48992-14.3104h55.67488V378.5216zM1012.23424 822.41536c-22.77376 12.77952-53.93408 0.49152-69.61664-27.4432l-89.37472-159.22176c-15.68256-27.93984-9.94304-60.94336 12.82048-73.728 22.77376-12.77952 53.93408-0.4864 69.62176 27.45344l89.37472 159.22176c15.68256 27.93472 9.93792 60.93824-12.8256 73.71776z" fill="#606266" p-id="5795"></path></svg>
