<?xml version="1.0" standalone="no"?><!DOCTYPE svg PUBLIC "-//W3C//DTD SVG 1.1//EN" "http://www.w3.org/Graphics/SVG/1.1/DTD/svg11.dtd"><svg t="1571033919687" class="icon" viewBox="0 0 1024 1024" version="1.1" xmlns="http://www.w3.org/2000/svg" p-id="6132" xmlns:xlink="http://www.w3.org/1999/xlink" width="200" height="200"><defs><style type="text/css"></style></defs><path d="M1015.7056 481.0752C1021.2352 483.84 1024 488.6528 1024 495.5136c0 6.9632-2.7648 11.6736-8.2944 14.4384L858.8288 592.4864l0 233.2672c0 6.9632-2.7648 11.6736-8.2944 14.4384L520.2944 1021.952 518.144 1021.952C516.8128 1023.2832 514.7648 1024 512 1024c-2.7648 0-4.8128-0.7168-6.144-2.048l-2.048 0L173.4656 840.2944C167.936 837.5296 165.1712 832.7168 165.1712 825.856L165.1712 592.4864 8.2944 509.952C2.7648 507.1872 0 502.3744 0 495.5136c0-6.8608 2.7648-11.6736 8.2944-14.4384l125.952-68.096-125.952-68.096C2.7648 342.016 0 337.2032 0 330.3424c0-6.8608 2.7648-11.6736 8.2944-14.4384L355.1232 134.144c5.5296-1.3312 11.0592-1.3312 16.4864 0L512 210.5344 652.3904 134.144c5.5296-1.3312 11.0592-1.3312 16.4864 0l346.8288 181.6576C1021.2352 318.6688 1024 323.4816 1024 330.3424c0 6.9632-2.7648 11.6736-8.2944 14.4384L889.856 412.8768 1015.7056 481.0752zM169.2672 394.3424l307.6096-165.1712L363.3152 167.2192 51.6096 330.3424 169.2672 394.3424zM51.6096 495.5136l311.7056 163.1232 113.5616-61.952L169.2672 431.5136 51.6096 495.5136zM198.144 815.5136l297.2672 163.1232L495.4112 625.5616l-123.904 66.048c-1.3312 1.3312-4.096 2.048-8.2944 2.048-4.096 0-6.8608-0.7168-8.2944-2.048L198.144 609.0752 198.144 815.5136zM819.6096 412.8768 512 247.7056 204.3904 412.8768 512 578.048 819.6096 412.8768zM825.856 609.0752 668.8768 691.6096c-1.3312 1.3312-4.096 2.048-8.2944 2.048s-6.8608-0.7168-8.2944-2.048l-123.904-66.048 0 353.0752 297.2672-163.1232L825.6512 609.0752zM547.1232 229.1712l307.6096 165.1712 117.6576-64L660.6848 167.2192 547.1232 229.1712zM972.3904 495.5136 854.7328 431.5136 547.1232 596.6848l113.5616 61.952L972.3904 495.5136z" p-id="6133"></path></svg>